<svg xmlns="http://www.w3.org/2000/svg" viewBox="0 0 243 300"><path fill-rule="evenodd" clip-rule="evenodd" fill="#50C5D2" d="M212.4 234.3h-41.9v19.3c0 2.6-2.1 4.7-4.7 4.7H78.3c-2.6 0-4.7-2.1-4.7-4.7v-50.4c0-2.6 2.1-4.7 4.7-4.7h87.6c2.6 0 4.7 2.1 4.7 4.7v19.3H212c3.8 0 7.5-.9 7.5-6.6v-53.2c0-4.2-1.9-7.5-6.6-7.5H196l10.5 10.5c.9.9.9 2.3 0 3.1l-4.3 4.3c-.9.9-2.3.9-3.1 0l-17.7-17.7-4.3-4.3c-.9-.9-.9-2.3 0-3.1l4.3-4.3L199 126c.9-.9 2.3-.9 3.1 0l4.3 4.3c.9.9.9 2.3 0 3.1l-10.5 10.5h16.9c7.5 0 17.9 5.2 17.9 17.4v55.6c0 8-6.2 17.4-18.3 17.4zm-53.6-22.4c0-1-.8-1.9-1.9-1.9H87.7c-1 0-1.9.8-1.9 1.9v33c0 1 .8 1.9 1.9 1.9h69.2c1 0 1.9-.8 1.9-1.9v-33zm7-32.7H78.3c-2.6 0-4.7-2.1-4.7-4.7v-50.4c0-2.6 2.1-4.7 4.7-4.7h87.6c2.6 0 4.7 2.1 4.7 4.7v50.4c-.1 2.6-2.2 4.7-4.8 4.7zm-7-46.4c0-1-.8-1.9-1.9-1.9H87.7c-1 0-1.9.8-1.9 1.9v33c0 1 .8 1.9 1.9 1.9h69.2c1 0 1.9-.8 1.9-1.9v-33zm7-31.3H78.3c-2.6 0-4.7-2.1-4.7-4.7V77h-41c-3.8 0-7.5.9-7.5 6.6v130.9c0 4.2 1.9 7.5 6.6 7.5h16.9l-10.5-10.5c-.9-.9-.9-2.3 0-3.1l4.3-4.3c.9-.9 2.3-.9 3.1 0l17.7 17.7 4.3 4.3c.9.9.9 2.3 0 3.1l-4.3 4.3-17.7 17.7c-.9.9-2.3.9-3.1 0l-4.3-4.3c-.9-.9-.9-2.3 0-3.1l10.5-10.5H31.7c-7.5 0-17.9-5.2-17.9-17.4V82.6c0-8 6.4-17.4 18.4-17.4h41.4V46.4c0-2.6 2.1-4.7 4.7-4.7h87.6c2.6 0 4.7 2.1 4.7 4.7v50.4c-.1 2.6-2.2 4.7-4.8 4.7zm-7-46.4c0-1-.8-1.9-1.9-1.9H87.7c-1 0-1.9.8-1.9 1.9v33c0 1 .8 1.9 1.9 1.9h69.2c1 0 1.9-.8 1.9-1.9v-33z"/></svg>