<svg xmlns="http://www.w3.org/2000/svg" viewBox="0 0 225.5 300"><path fill-rule="evenodd" clip-rule="evenodd" fill="#C91F48" d="M212.5 234.3c5.6 8.8 17.8 25.3 5.6 46.8-12.2 21.5-36.1 16.5-36.1 16.5H43s-23.9 5-36.1-16.5c-12.2-21.5 0-38 5.6-46.8 5.6-8.8 61.1-101.8 61.1-101.8V127s-13.9 0-13.9-11V88.5c0-8.8 13.9-8.3 13.9-8.3h77.8s13.9-.6 13.9 8.3V116c0 11-13.9 11-13.9 11v5.5s55.5 93 61.1 101.8zm-60-117.8V91.2H72.4v25.3h14.3v14.3S85 137 81 145c-4 7.9-60.1 99.4-60.1 99.4s-9.7 21.4-2.9 31c6.9 9.6 15.5 11.3 22.9 11.3H184c7.4 0 16-1.7 22.9-11.3 6.9-9.6-2.9-31-2.9-31S147.9 153 143.9 145c-4-7.9-5.7-14.2-5.7-14.2v-14.3h14.3zm35 134.3s5.6 7.7 2.8 13.8c-2.8 6.1-7.8 8.3-13.9 8.3H48.6c-6.1 0-11.1-2.2-13.9-8.3-2.8-6.1 2.8-13.8 2.8-13.8l33.3-60.5h83.4l33.3 60.5zM124.8 68.2c-7.8 0-14.1-6.2-14.1-13.9s6.3-13.9 14.1-13.9 14.1 6.2 14.1 13.9-6.3 13.9-14.1 13.9zm-10.4-55.3c-3.1 0-5.6-2.5-5.6-5.5 0-3.1 2.5-5.5 5.6-5.5 3.1 0 5.6 2.5 5.6 5.5.1 3.1-2.5 5.5-5.6 5.5zm-1.9 16.5c0 5.1-4.2 9.2-9.4 9.2s-9.4-4.1-9.4-9.2 4.2-9.2 9.4-9.2 9.4 4.1 9.4 9.2z"/></svg>