<svg xmlns="http://www.w3.org/2000/svg" width="849" height="87"><path data-name="Shape copy 2" d="M7.362 86.981s70.121.011 84.326.011a3.191 3.191 0 0 0 2.749-1.6c-.621 1.032 46.474-81.935 46.882-82.653a1.883 1.883 0 0 0-1.7-2.688C203.107.05 7.362.031 7.362.031 3.835.031.975 2.265.975 5.02v76.973c0 2.755 2.86 4.988 6.387 4.988z" fill-rule="evenodd" fill="#2a4cbb"/><path data-name="enabling.systems copy" d="M225.423 45.951c-1.423 1.439-40.07 38.241-41.112 39.262a6.367 6.367 0 0 1-3.774 1.328c-12.658 0-22.067.042-22.847.05-1.392-.027-1.729-1.281-.82-2.194.812-.816 40.014-38.038 40.958-38.956a2.859 2.859 0 0 0 0-4.289c-.944-.918-40.141-38.14-40.953-38.956-.911-.915-.575-2.167.819-2.196.779.008 10.186.05 22.843.05a6.366 6.366 0 0 1 3.774 1.328c1.042 1.022 39.681 37.822 41.106 39.263q2.629 2.659.006 5.31zM157.69 86.59h.047a2.156 2.156 0 0 1-.047 0zM157.74 0h0zM259 67.553a2.113 2.113 0 0 1-1.945.992 3.718 3.718 0 0 1-2.346-.855 2.661 2.661 0 0 1-1.088-2.185 5.072 5.072 0 0 1 .768-2.505l26.07-43.91a2.2 2.2 0 0 1 2.015-1.04 3.762 3.762 0 0 1 2.3.817 2.564 2.564 0 0 1 1.083 2.147 5 5 0 0 1-.8 2.584zm55.081-12.522h20.224v-3.974h-16.253V43.13h13.877v-3.973h-13.877V31.21h16.257v-3.973h-20.224v27.794zm38.061-21.553l16.682 21.553h3.976V27.237h-3.968V48.79l-16.686-21.553h-3.968v27.794h3.968V33.478zm44.021-6.241l-10.7 27.794h3.967l2.458-6.4h12.522l2.458 6.4h3.967l-10.7-27.794h-3.968zm1.994 5.175l4.722 12.249H393.4zm45.754 5.921a8.54 8.54 0 0 0 .745-3.828V34q0-6.764-6.735-6.764h-14.4v27.795h15.192q6.735 0 6.735-6.745v-1.4a9.988 9.988 0 0 0-.27-2.442 6.265 6.265 0 0 0-.775-1.851 4.568 4.568 0 0 0-1.219-1.289 5.663 5.663 0 0 0-1.587-.775 4.683 4.683 0 0 0 2.318-2.196zm-5.311 4.584a3.056 3.056 0 0 1 2.265.717 3.225 3.225 0 0 1 .7 2.307v2.151a3.267 3.267 0 0 1-.7 2.307 3 3 0 0 1-2.265.736h-11.184v-8.218H438.6zm-.793-11.784a3 3 0 0 1 2.264.736 3.3 3.3 0 0 1 .7 2.326v1.822a3.36 3.36 0 0 1-.629 2.239 2.753 2.753 0 0 1-2.061.785h-10.665v-7.908h10.393zm21.513-3.9v27.798h18.232v-3.974H463.29v-23.82h-3.968zm30.92 0v27.798h3.967V27.237h-3.967zm22.984 6.241l16.683 21.553h3.968v-27.79h-3.968V48.79l-16.681-21.553h-3.967v27.794h3.967V33.478zm35.7 17.579a3.88 3.88 0 0 0 .31 1.541 3.962 3.962 0 0 0 2.119 2.122 3.874 3.874 0 0 0 1.539.31h15.057a3.866 3.866 0 0 0 1.538-.31 3.968 3.968 0 0 0 2.12-2.122 3.9 3.9 0 0 0 .309-1.541V40.339h-11.5v3.973h7.529v6.745h-15.051V31.21h15.057v3.59h3.967v-3.59a3.924 3.924 0 0 0-1.161-2.8 4.209 4.209 0 0 0-1.268-.853 3.768 3.768 0 0 0-1.538-.32h-15.057a3.776 3.776 0 0 0-1.539.32 4.209 4.209 0 0 0-1.268.853 3.935 3.935 0 0 0-1.161 2.8v19.847zm37.655 3.973h5.786v-5.8h-5.786v5.8zm37.886-11.9v7.927H610.61v-3.562h-3.967v3.566a3.9 3.9 0 0 0 .309 1.541 3.97 3.97 0 0 0 2.119 2.122 3.874 3.874 0 0 0 1.539.31h13.857a3.874 3.874 0 0 0 1.539-.31 3.962 3.962 0 0 0 2.119-2.122 3.9 3.9 0 0 0 .31-1.541V43.13a3.9 3.9 0 0 0-.31-1.541 3.962 3.962 0 0 0-2.119-2.122 3.881 3.881 0 0 0-1.539-.31H611V31.21h13.47v3.59h3.968v-3.59a3.935 3.935 0 0 0-1.161-2.8 4.221 4.221 0 0 0-1.268-.853 3.776 3.776 0 0 0-1.539-.32H611a3.768 3.768 0 0 0-1.538.32 4.209 4.209 0 0 0-1.268.853 3.924 3.924 0 0 0-1.161 2.8v7.947a3.923 3.923 0 0 0 1.161 2.8 4.2 4.2 0 0 0 1.268.853 3.768 3.768 0 0 0 1.538.32h13.47zm16.269-15.893L651.439 44v11.031h3.967V44l10.7-16.765H661.5l-8.09 12.986-8.071-12.986h-4.606zm55.094 15.897v7.927h-13.857v-3.566H678v3.566a3.9 3.9 0 0 0 .309 1.541 3.97 3.97 0 0 0 2.119 2.122 3.874 3.874 0 0 0 1.539.31h13.857a3.874 3.874 0 0 0 1.539-.31 3.962 3.962 0 0 0 2.119-2.122 3.9 3.9 0 0 0 .31-1.541V43.13a3.9 3.9 0 0 0-.31-1.541 3.962 3.962 0 0 0-2.119-2.122 3.881 3.881 0 0 0-1.539-.31h-13.47V31.21h13.47v3.59h3.976v-3.59a3.935 3.935 0 0 0-1.161-2.8 4.221 4.221 0 0 0-1.268-.853 3.776 3.776 0 0 0-1.539-.32h-13.47a3.768 3.768 0 0 0-1.538.32 4.209 4.209 0 0 0-1.268.853 3.924 3.924 0 0 0-1.161 2.8v7.947a3.923 3.923 0 0 0 1.161 2.8 4.2 4.2 0 0 0 1.268.853 3.768 3.768 0 0 0 1.538.32h13.47zm16.656-11.92h9.116v23.82h3.967V31.21h9.116v-3.973h-22.2v3.973zm34.887 23.82H767.6v-3.973h-16.261V43.13h13.876v-3.973h-13.876V31.21H767.6v-3.973h-20.229v27.794zm49.6 0l10.354-20.37v20.37h3.948V27.237h-4.316l-10.59 20.932L785.8 27.237h-4.336v27.794h3.968V34.66l10.354 20.37h1.181zm46.809-11.9v7.927h-13.862v-3.566h-3.967v3.566a3.9 3.9 0 0 0 .309 1.541 3.968 3.968 0 0 0 2.12 2.122 3.869 3.869 0 0 0 1.538.31h13.858a3.873 3.873 0 0 0 1.538-.31 3.962 3.962 0 0 0 2.119-2.122 3.88 3.88 0 0 0 .31-1.541V43.13a3.881 3.881 0 0 0-.31-1.541 3.962 3.962 0 0 0-2.119-2.122 3.88 3.88 0 0 0-1.538-.31h-13.471V31.21h13.471v3.59h3.967v-3.59a3.935 3.935 0 0 0-1.161-2.8 4.209 4.209 0 0 0-1.268-.853 3.774 3.774 0 0 0-1.538-.32h-13.471a3.774 3.774 0 0 0-1.538.32 4.209 4.209 0 0 0-1.268.853 3.935 3.935 0 0 0-1.161 2.8v7.947a3.934 3.934 0 0 0 1.161 2.8 4.2 4.2 0 0 0 1.268.853 3.774 3.774 0 0 0 1.538.32h13.471z" fill="#282a2e" fill-rule="evenodd"/><path data-name="Rounded Rectangle 4" d="M75.334 13.107c-.812.816-28.413 27.126-29.357 28.045a2.972 2.972 0 0 0 0 4.389c.944.919 28.545 27.229 29.357 28.045.909.914.572 2.167-.821 2.194-.779-.008-10.186-.05-22.843-.05a6.368 6.368 0 0 1-3.77-1.33c-1.045-1.02-28.088-26.91-29.513-28.349-1.754-1.771-1.754-3.639 0-5.41C19.812 39.2 46.855 13.311 47.9 12.29a6.366 6.366 0 0 1 3.774-1.328c12.656 0 22.064-.042 22.843-.05 1.389.028 1.727 1.281.817 2.195zm-.866 62.673h0zm.046-64.867h-.046a2.29 2.29 0 0 1 .046 0z" fill="#e5e9f2" fill-rule="evenodd"/></svg>