<svg xmlns="http://www.w3.org/2000/svg" viewBox="0 0 300.5 300"><path fill-rule="evenodd" clip-rule="evenodd" fill="#FDC010" d="M295.7 79.2L236 138.9v43.4c26.7 5.3 46.9 28.8 46.9 57.1 0 32.1-26.1 58.2-58.2 58.2s-58.2-26.1-58.2-58.2c0-28.3 20.1-51.8 46.9-57.1v-43.4l-53-53h-41.8c-4.4 23.3-22.6 41.7-45.8 46.3v47.5h42.6c2.8 0 5 2.3 5 5v107.8c0 2.8-2.3 5-5 5H7.6c-2.8 0-5-2.3-5-5V184.6c0-2.8 2.3-5 5-5h42.6v-47.5C23.4 126.8 3.3 103.3 3.3 75c0-32.1 26.1-58.2 58.2-58.2 28.1 0 51.5 19.9 57 46.4h44.9L221.6 5c1.8-1.8 4.6-1.8 6.3 0l67.8 67.8c1.8 1.8 1.8 4.6 0 6.4zm-267 124.6c-1.1 0-2 .9-2 2v65.5c0 1.1.9 2 2 2h65.5c1.1 0 2-.9 2-2v-65.5c0-1.1-.9-2-2-2H28.7zM61.5 40.1c-19.3 0-34.9 15.6-34.9 34.9s15.6 34.9 34.9 34.9S96.4 94.3 96.4 75 80.8 40.1 61.5 40.1zm128.3 199.2c0 19.3 15.6 34.9 34.9 34.9s34.9-15.6 34.9-34.9-15.6-34.9-34.9-34.9-34.9 15.6-34.9 34.9zm77.4-164.6L226 33.5c-.7-.7-1.8-.7-2.5 0l-41.2 41.2c-.7.7-.7 1.8 0 2.5l41.2 41.2c.7.7 1.8.7 2.5 0l41.2-41.2c.7-.6.7-1.8 0-2.5z"/></svg>