<svg xmlns="http://www.w3.org/2000/svg" width="164" height="164"><path data-name="Rounded Rectangle 5" d="M35.8 51.723H3.522v112.133H35.8V51.723zM19.659.412A18.087 18.087 0 0 0 6.4 5.941 18.1 18.1 0 0 0 .87 19.212a18.092 18.092 0 0 0 5.53 13.27 18.072 18.072 0 0 0 13.263 5.529 18.081 18.081 0 0 0 13.263-5.529 18.1 18.1 0 0 0 5.526-13.27 18.115 18.115 0 0 0-5.526-13.27A18.1 18.1 0 0 0 19.659.412zM164 91.092q0-19.9-9.726-30.19t-26.968-10.284q-12.159 0-20.889 5.418a32.912 32.912 0 0 0-12.931 14.708V51.723H61.213v112.133h32.273v-59.273q0-13.934 5.858-20.9a18.41 18.41 0 0 1 14.7-6.967q8.4 0 13.042 5.2t4.642 15.15v66.793H164V91.092z" fill="#1e92b8" fill-rule="evenodd"/></svg>