<svg xmlns="http://www.w3.org/2000/svg" viewBox="0 0 266.1 300"><path fill-rule="evenodd" clip-rule="evenodd" fill="#F7901E" d="M259.3 231.3c-2.6 1.5-112.6 62.7-117.2 65-8.1 4-10.1 4-18.1 0-4.5-2.3-114.5-63.5-117.2-65-2.6-1.5-6.8-3.4-6.8-8.3V69.7c0-6 4.9-8.7 9.1-10.6 4.2-1.9 113-54.8 117.2-56.7 6.7-3 7-3 13.6 0 4.2 1.9 113 54.8 117.2 56.7 4.2 1.9 9.1 4.5 9.1 10.6v153.4c0 4.9-4.2 6.7-6.9 8.2zm-55.2 8.4l43.1-24.2v-53.6l-43.1 23.4v54.4zm-62 34.7l43.1-24.2v-53.6L142.1 220v54.4zm-9-71.8l41.6-22.6-41.6-23.6L91.5 180l41.6 22.6zm52.1-38.5v-55.9l-43.1-23.4V140l43.1 24.1zM80.9 250.2l43.1 24.2V220l-43.1-23.4v53.6zm0-86.1l43.1-24.2V84.8l-43.1 23.4v55.9zm-62 51.4L62 239.7v-54.4l-43.1-23.4v53.6zm-.8-76.3L62 163.3V109L18.1 84.8v54.4zm11.4-70.3l42.3 22.7 41.6-22.7-41.6-20.4-42.3 20.4zm103.6-50.2L93 38.7l40.1 19.6 40.1-19.6-40.1-20zm61.2 29.8l-41.6 20.4 41.6 22.7 42.3-22.7-42.3-20.4zM248 84.8L204.1 109v54.4l43.8-24.2V84.8z"/></svg>