<svg xmlns="http://www.w3.org/2000/svg" width="204" height="166"><path d="M23.407 100.794l4.383.653h3.084a27.475 27.475 0 0 0 7.467-.653h.974v-.163c.833-.269 2.06-.116 2.6-.652a6.977 6.977 0 0 1-1.786-.489l-2.76-.652v-.163h-.651v-.163h-.324v-.163l-.974-.163v-.163h-.32v-.163h-.492v-.16l-.649-.163v-.166h-.487v-.163l-.972-.327v-.163h-.327v-.163h-.325v-.163h-.324v-.163H31.2v-.163h-.326V95.9h-.324v-.16h-.325v-.163H29.9l-.162-.326-.974-.326v-.163l-.487-.162-.162-.326-.649-.163-.325-.489h-.325v-.164l-.487-.163-.162-.326h-.325l-.162-.326-.487-.163-.325-.489h-.325l-.649-.815h-.325l-.811-.976h-.325l-1.3-1.467-1.948-1.793v-.33l-.974-.815v-.326l-.649-.489v-.326l-.487-.326V84l-.487-.326v-.325l-.488-.326V82.7l-.325-.163v-.329l-.325-.163-.162-.489h-.16l-.162-.656c-3.758-5.955-6.123-12.793-6.331-22.336l2.6 1.141v.163h.325v.163h.325v.169h.487v.163l.649.163v.163l.812.163v.163l.967.161v.163h.325v.161l1.136.163c3.146 1.359 7.1 1.689 11.2 2.12v-.161a1.762 1.762 0 0 1-.325-.326h-.32l-.162-.326h-.325L26 62.48h-.32l-.325-.489h-.325l-.324-.491h-.325l-.649-.815h-.325l-1.786-1.956-2.435-2.282v-.325l-.812-.652v-.326l-.649-.489v-.326L17.238 54v-.324l-.487-.326v-.326l-.325-.163-.162-.489H16.1v-.326l-.325-.163v-.326l-.325-.163v-.326l-.322-.168-.162-.652-.325-.163-.325-.978-.325-.163-.325-.978H13.5v-.322h-.158l-.325-.978h-.162v-.489h-.162v-.326h-.162l-.163-.651h-.162v-.491h-.162v-.326h-.163v-.489h-.162v-.326h-.162l-1.624-5.543-.162-1.794a21.514 21.514 0 0 1-.649-5.869l-.162-1.63h.162c.25-1.134-.1-2.658.162-3.587l.162-2.609c.224-.768.42-1.866.649-2.609v-.815h.162v-.652h.163l.162-1.141h.162v-.489h.162l.325-1.63h.162v-.327h.162l.162-.978h.162v-.326h.162v-.489h.162v-.326h.162v-.489h.162l.325-.978h.162v-.327h.166v-.326h.162v-.489l.325-.163v-.326a5.84 5.84 0 0 0 .812-1.63h.321l.649.815h.162v.326l.812.652v.326l1.136.978v.326l1.3 1.141v.326l.325.163v.163L21.3 15.2v.326l1.461 1.3 1.3 1.467h.325l2.273 2.446h.325l.812.978.487.326v.167h.317l.974 1.141h.326l.487.649h.325l.812.978h.325l.487.652h.324l.487.652h.325l.162.326.487.163.487.652h.325l.167.33h.32l.325.489h.325l.487.652h.325l.162.326h.325l.325.489h.325v.163l.481.164.162.326h.325l.325.489h.328l.16.326.49.163v.16h.325l.162.326h.323l.162.326h.325l.162.326h.325l.162.326.649.163v.163l.489.17.162.326h.325l.162.326.649.163.162.326.651.159.162.326.653.164.162.326.649.163.162.326h.325v.163h.322v.163h.325v.163h.325l.162.326.974.326.162.326h.325v.163h.325v.165h.325v.163h.325v.163h.325v.163l.649.163.158.325h.49v.163h.325V39h.325l.16.329.812.163v.163h.325l.163.326h.487v.163h.325v.163h.325v.163h.325v.163l.974.326v.163h.487v.163h.325v.163l.652.164v.163h.487v.163l.645.162v.163h.487v.163l.649.163v.163h.487v.163h.325v.163l.812.163v.159h.487v.163h.321v.163l.974.163v.163h.326v.168h.487v.163h.487v.163h.326v.163h.487v.163h.487v.163h.487v.165h.487v.163h.487v.163h.487v.163h.325v.163H70v.163h.487v.163h.487v.162h.487v.16h.487v.163h.487v.163l1.3.163v.163h.487v.163l1.136.163v.163l1.782.329v.163h.649v.167h.649v.163h.812v.163h.65v.163h.812c1.43.463 3.223.7 4.708 1.141l1.948.163v.163l2.11.163v.163h1.136v.163h1.3v.155h1.3v.163h1.461v.163h1.786v.163l4.059.163a20.866 20.866 0 0 0-.65-3.1v-1.134h-.17v-1.467h-.158v-3.587h-.162a.434.434 0 0 1 .162-.489v-3.424h.158V36.72h.162v-1.141h.162V34.6h.162v-.814h.162v-.815q.813-2.771 1.624-5.543h.162V27.1h.166v-.488h.163v-.326h.162V25.8h.162v-.329h.163l.162-.815h.162l.325-.978h.162v-.327h.163v-.326h.162V22.7h.162v-.327h.163v-.326l.324-.163.325-.978.325-.163.162-.652h.162q.083-.245.163-.489l.324-.163.163-.652.487-.326v-.327l.325-.163v-.326l.487-.326v-.326l.487-.326v-.326l.649-.489v-.327l.487-.326v-.163l.325-.163v-.326l.324-.163a7.534 7.534 0 0 0 1.624-1.956h.324l1.786-1.957h.325l.811-.978h.325l.325-.489h.324l.487-.652h.325l.162-.326h.325l.325-.489h.324l.163-.326h.324l.163-.326.649-.163.162-.326.487-.163v-.164l.974-.326.163-.326h.324v-.163h.325v-.163h.325v-.163h.324v-.163h.325V4.6h.325v-.161h.324v-.163l.974-.326v-.163h.487v-.163l.65-.163V3.3h.487v-.165H126v-.164h.487v-.163h.325v-.163l.974-.163v-.163h.487v-.163h.487v-.163l1.14-.163v-.163h.65V1.5l1.3-.163v-.159l1.624-.163V.852h.974V.689h.974V.526h1.461V.363h2.11V.2a16.025 16.025 0 0 1 4.221.163h2.11v.163l3.409.326v.163h.812v.163h.811v.163H151V1.5h.649v.167h.651v.163h.487v.163h.65v.163h.487v.163h.487v.163h.489v.163l.974.163v.163h.326v.164h.487V3.3l.65.163v.161h.487v.163l.974.326v.163h.324v.163l.808.161.162.326h.325v.165h.325v.163h.324v.163h.325v.163h.325l.162.326.974.326.162.326h.325l.161.326h.325l.162.326h.325l.163.326h.325l.162.326h.325l.163.326h.324l.487.652h.325l.325.489h.324l.65.815h.324l.974 1.141h.325l.162.326.974.815.812.978h.649a4.522 4.522 0 0 1 1.461-.326v-.161h.812v-.163h.649v-.163l1.3-.163v-.163h.649V12.1h.487v-.161l1.137-.163v-.163h.649v-.164h.487v-.163h.487v-.163h.487v-.163h.649v-.16l.974-.163v-.166h.325v-.163l.974-.163v-.163l.974-.163v-.163h.325v-.163h.487V9.33h.324v-.163l.973-.167v-.159l.65-.163v-.163h.487v-.163l.649-.163v-.163h.487v-.163h.325V7.7l.649-.163v-.164h.487V7.21l.974-.326v-.163l.649-.163V6.4l.65-.163v-.168h.324v-.163h.325v-.163h.329V5.58h.324v-.163h.325v-.163l.649-.163.163-.326h.324V4.6h.325v-.161h.325v-.163h.324l.163-.326h.324c.313-.178.651-.472.974-.652v.326h-.162l-.162.978h-.163v.489h-.162v.326h-.162v.489h-.163v.326h-.166v.489h-.162v.326h-.163v.49h-.162l-.325.978h-.162v.326h-.162v.326h-.163v.326h-.162v.326h-.162v.326h-.163v.326h-.162v.329l-.325.163-.324.978h-.163l-.162.489-.325.163-.162.652h-.162l-.163.489-.324.163v.326l-.487.326v.326l-.325.163v.326l-.325.163-.162.489-.487.326v.326l-.974.815v.326l-1.3 1.141v.326l-1.3 1.141-.487.652h-.325l-1.136 1.3h-.325l-.162.326h-.163l-.324.489h-.325l-.487.652h-.325l-.324.489h-.325l-.162.326-.487.163v.163h-.325l-.325.489-.649.163-.162.326h-.325v.163l-.487.163v.163h.325l7.629-1.3v-.162l2.111-.326v-.163l1.948-.326V24l1.136-.163v-.16l1.623-.326v-.163h.487v-.163h.487v-.163h.487V22.7h.487v-.164h.487v-.163h.487v-.163h.487v-.163h.325v-.163l1.461-.326v-.163l.812-.163v-.163h.324v-.163h.487v-.163l.65-.163v-.163h.487v-.163l.974-.326v.163a8.263 8.263 0 0 0-1.137 1.793l-.487.326v.326l-.487.326v.326l-.487.326v.326l-.487.326v.326l-.487.326v.326l-.649.489v.327l-.649.489v.326l-.812.652v.326l-1.136.978v.326l-1.624 1.467v.326l-2.759 2.609-1.137 1.3h-.324l-1.461 1.63h-.325l-.974 1.141h-.325l-.649.815h-.325l-.484.655h-.328l-.487.652h-.325l-.325.489h-.324l-.325.489h-.325l-.324.489h-.325l-.162.326h-.163v4.565a2.408 2.408 0 0 1 .163 1.467.816.816 0 0 1-.163.163v2.772l-.162 5.054h-.153v1.956h-.163v1.467h-.167l-.325 4.076c-.261.884-.385 2.215-.649 3.1v.978h-.162l-.163 1.793c-.635 2.069-.945 4.524-1.623 6.522l-.325 1.957h-.162l-.649 2.935h-.163l-.324 1.63h-.163v.489h-.162v.491h-.162v.489h-.163v.489h-.162v.489h-.162v.489h-.163v.489h-.162v.489h-.162v.489H176v.489h-.162v.489h-.162v.326h-.163l-.324 1.467h-.163v.326h-.162v.489h-.164v.331h-.16l-.162.815h-.162v.485h-.163v.326h-.162v.489h-.162v.326h-.163v.489h-.166v.326h-.162v.489h-.163l-.162.652h-.162v.326h-.163v.489h-.158l-.162.652h-.163v.489h-.162v.326h-.162v.326h-.163v.326h-.162l-.325.978h-.162V99h-.162l-.325.978h-.162v.326h-.163v.326H170v.326h-.162v.326h-.168v.327h-.162v.326h-.162v.326h-.163v.326h-.162v.326l-.325.163v.324h-.162v.326h-.162v.326h-.163v.326h-.162v.326h-.162l-.163.652-.324.163v.327h-.163v.326h-.162v.328h-.162v.326l-.325.163v.326h-.162v.326l-.325.163-.325.978-.324.163-.163.652-.325.163-.162.653h-.162l-.162.489-.325.163-.163.652-.324.163v.326l-.325.163v.331l-.325.163-.162.652h-.162l-.163.489-.324.163v.327l-.325.163v.326l-.487.326v.326l-.325.163v.326h-.166l-.162.489-.325.163v.324l-.487.326v.326l-.325.163v.326l-.324.163-.163.49-.487.326v.326l-.487.326v.328l-.487.326v.326l-.487.326v.322l-.649.489v.326l-.649.49v.326l-.65.489v.326l-.811.652v.326l-.812.652v.324l-.974.815v.327l-1.461 1.3v.326l-2.273 2.119v.326l-1.461 1.305-1.3 1.467h-.325l-1.948 2.12h-.153l-.163.326h-.327l-1.3 1.467h-.325l-.811.978h-.324l-.162.326-.487.326v.172h-.325l-.649.816h-.327l-.487.652h-.323l-.487.652h-.324l-.325.489h-.325l-.487.652-.487.163-.162.326h-.325l-.162.326h-.325l-.162.326-.487.164-.325.489h-.324v.163l-.487.163-.163.326h-.324l-.325.489h-.325l-.162.326h-.325l-.162.326h-.325l-.162.326h-.323l-.162.326h-.325l-.162.326h-.325l-.162.326h-.325l-.162.326-.649.163v.159l-.487.163-.163.326-.649.163-.162.326-.65.163-.162.326-.974.326-.162.326h-.325v.163h-.325l-.162.326-.649.163v.163h-.325v.166h-.325l-.162.326h-.325v.163h-.321v.163h-.33v.163h-.325v.163h-.324v.164l-.65.163-.162.326h-.487l-.162.326-.65.163v.163l-.649.163v.163h-.487l-.162.326h-.487v.165h-.325v.163h-.325v.163h-.324v.163l-.974.326v.163h-.487v.163h-.325v.159l-.649.163v.163h-.487v.163l-.65.163v.163h-.487v.163h-.324v.164h-.487v.163l-.65.163v.163l-.974.163v.163h-.324v.163l-.974.163v.163h-.325v.163h-.487v.163h-.325v.163h-.487V159h-.487v.163h-.487v.163h-.487v.163h-.487v.163h-.487v.163h-.487v.163h-.487v.163h-.487v.159h-.487v.163h-.487v.163l-1.623.326v.163h-.65v.164h-.486v.163l-1.136.163v.163l-1.3.163v.169l-1.3.163v.163l-1.3.163v.163h-.809v.163l-1.461.163v.163h-.649v.159h-.812v.163h-.811v.163l-1.786.163v.163h-.974v.163h-.974v.163h-.974v.163h-1.136v.163h-1.137v.163h-1.3v.163h-1.3v.163l-5.519.327v.163h-2.6a22.442 22.442 0 0 1-4.87.163l-2.6.163v-.163h-3.401l-8.279-.49c-1.564-.453-3.671-.361-5.195-.815h-.974c-1.384-.42-3.2-.554-4.545-.978h-.812v-.163h-.812v-.163h-.811v-.163h-.65v-.163h-.649v-.163h-.812v-.163l-1.948-.326v-.159l-2.435-.489v-.163h-.487v-.163h-.487v-.164h-.649v-.163l-1.623-.326v-.163H28.6v-.169h-.485v-.16h-.487v-.163h-.487v-.163h-.487v-.163h-.487v-.163l-1.461-.326V159h-.325v-.163l-1.461-.326v-.163h-.32v-.163h-.492v-.163h-.324v-.163H21.3v-.159h-.49v-.163l-.649-.163v-.163h-.488v-.163h-.324v-.164l-.812-.163v-.163h-.487v-.168l-.649-.163v-.163h-.487v-.164l-.649-.163v-.163h-.325v-.163h-.325v-.163h-.487v-.163l-.974-.326v-.159h-.325v-.163H13.5v-.163h-.32v-.163l-.812-.163v-.163l-.974-.326v-.163l-.649-.163-.162-.326h-.325v-.163h-.325v-.164h-.324v-.163h-.325v-.163h-.325v-.163h-.324v-.163H8.31v-.163l-.649-.165-.161-.327h-.326v-.163h-.325v-.163h-.325l-.162-.326h-.325v-.163h-.324v-.158h-.325v-.163h-.325l-.163-.331-.649-.163-.162-.326-.649-.163-.162-.326-.649-.163-.162-.327a6.4 6.4 0 0 1-1.623-.978 15.669 15.669 0 0 1 3.571.326H7.5v.163h1.622a18.707 18.707 0 0 0 4.221-.163l5.195-.163v-.163H20v-.16h1.461c1.555-.453 3.526-.514 5.032-.978l1.623-.163v-.163l1.461-.163v-.163l1.3-.163v-.163l1.3-.163v-.163h.483v-.163l1.136-.163v-.163h.649v-.163l1.623-.327v-.163h.487v-.166h.487v-.163h.488v-.163l.974-.163v-.163h.325v-.158l1.461-.326v-.163h.325v-.163h.485v-.168h.325v-.163h.487v-.163h.325v-.163h.487v-.163l.649-.163v-.165h.487v-.163h.325v-.163l.649-.163v-.161h.487v-.163h.325v-.163l.649-.164v-.16l.649-.163v-.163h.326v-.163h.325v-.163h.325v-.163h.325v-.163h.325v-.163h.325v-.163h.325v-.166h.325v-.163h.325v-.167h.325v-.163h.325v-.163h.325l.155-.322.974-.326.162-.326.974-.326.162-.326.649-.163.162-.327.649-.163.162-.326h.325l.162-.326h.325l.162-.326.649-.163v-.163l.487-.163.162-.326h.334l.162-.326h.325l.325-.489h.325l.162-.326h.325l.325-.489h.321l.162-.326h.325l.325-.49h.325l.325-.489h.325v-.167l.487-.326v-.163h-1.787c-.4-.334-1.174.015-1.786-.163v-.163h-1.3v-.163h-1.135v-.163h-.811V129h-.812v-.163H53.6v-.163h-.648v-.163H52.3v-.163l-1.136-.163v-.163h-.485v-.163h-.487v-.159h-.487v-.163h-.487v-.167l-1.461-.326v-.164l-.649-.163v-.163h-.487v-.163l-.649-.163v-.163h-.487v-.165l-.974-.326v-.163h-.325v-.161l-.974-.326-.162-.324-.974-.326-.162-.326-.649-.163-.162-.326-.649-.163v-.163l-.487-.163-.162-.327h-.327l-.162-.326h-.325l-.325-.489h-.324l-.325-.489h-.325l-.487-.652h-.324l-.487-.652h-.325l-.969-1.143h-.33l-.812-.979-1.948-1.793v-.326l-.974-.815v-.326l-.649-.49v-.326l-.649-.489v-.326l-.487-.326v-.326l-.325-.163v-.326l-.487-.326v-.326l-.325-.163-.162-.652h-.162l-.162-.49-.325-.163-.162-.652-.325-.163v-.326h-.162v-.326h-.163v-.326h-.162v-.326h-.162v-.326l-.325-.163v-.326h-.162l-.162-.652h-.163v-.489h-.162v-.327h-.163l-.325-.978h-.162v-.489a10.223 10.223 0 0 1-1.136-3.098z" fill="#11aced" fill-rule="evenodd"/></svg>