<svg xmlns="http://www.w3.org/2000/svg" viewBox="0 0 277 300"><path fill-rule="evenodd" clip-rule="evenodd" fill="#50C5D2" d="M265.4 292.6H13.1c-4.9 0-8.9-4-8.9-9V123.1c0-5 4-9 8.9-9h24.4c.5-11.1 5.3-36.7 38.9-48.4 49.9-17.4 143.2 40.2 152.4-.3 8.1-35.7-93.1-45.4-93.1-45.4l3.1-12.6s114 7.3 104.1 60.7c-10.5 56.9-119.8-4.2-161.1 9.2-25.5 8.2-28.7 28-28.8 36.8h212.5c4.9 0 8.9 4 8.9 9v160.5c0 5-4 9-9 9zm-6.1-158.9c0-2.5-2-4.5-4.5-4.5H23.7c-2.5 0-4.5 2-4.5 4.5V273c0 2.5 2 4.5 4.5 4.5h231.1c2.5 0 4.5-2 4.5-4.5V133.7zM237.9 216h-20.2c-1.2 0-2.2-1-2.2-2.3v-20.3c0-1.2 1-2.3 2.2-2.3h20.2c1.2 0 2.2 1 2.2 2.3v20.3c0 1.3-1 2.3-2.2 2.3zm0-42.8h-20.2c-1.2 0-2.2-1-2.2-2.3v-20.3c0-1.2 1-2.3 2.2-2.3h20.2c1.2 0 2.2 1 2.2 2.3v20.3c0 1.3-1 2.3-2.2 2.3zm-43.5 85.7h-109c-1.2 0-2.2-1-2.2-2.3v-20.3c0-1.2 1-2.3 2.2-2.3h109c1.2 0 2.2 1 2.2 2.3v20.3c0 1.3-1 2.3-2.2 2.3zm-.9-42.9h-20.2c-1.2 0-2.2-1-2.2-2.3v-20.3c0-1.2 1-2.3 2.2-2.3h20.2c1.2 0 2.2 1 2.2 2.3v20.3c0 1.3-1 2.3-2.2 2.3zm0-42.8h-20.2c-1.2 0-2.2-1-2.2-2.3v-20.3c0-1.2 1-2.3 2.2-2.3h20.2c1.2 0 2.2 1 2.2 2.3v20.3c0 1.3-1 2.3-2.2 2.3zM149 216h-20.2c-1.2 0-2.2-1-2.2-2.3v-20.3c0-1.2 1-2.3 2.2-2.3H149c1.2 0 2.2 1 2.2 2.3v20.3c.1 1.3-.9 2.3-2.2 2.3zm0-42.8h-20.2c-1.2 0-2.2-1-2.2-2.3v-20.3c0-1.2 1-2.3 2.2-2.3H149c1.2 0 2.2 1 2.2 2.3v20.3c.1 1.3-.9 2.3-2.2 2.3zM104.6 216H84.4c-1.2 0-2.2-1-2.2-2.3v-20.3c0-1.2 1-2.3 2.2-2.3h20.2c1.2 0 2.2 1 2.2 2.3v20.3c.1 1.3-.9 2.3-2.2 2.3zm0-42.8H84.4c-1.2 0-2.2-1-2.2-2.3v-20.3c0-1.2 1-2.3 2.2-2.3h20.2c1.2 0 2.2 1 2.2 2.3v20.3c.1 1.3-.9 2.3-2.2 2.3zM60.2 216H40c-1.2 0-2.2-1-2.2-2.3v-20.3c0-1.2 1-2.3 2.2-2.3h20.2c1.2 0 2.2 1 2.2 2.3v20.3c.1 1.3-.9 2.3-2.2 2.3zm0-42.8H40c-1.2 0-2.2-1-2.2-2.3v-20.3c0-1.2 1-2.3 2.2-2.3h20.2c1.2 0 2.2 1 2.2 2.3v20.3c.1 1.3-.9 2.3-2.2 2.3z"/></svg>