<svg xmlns="http://www.w3.org/2000/svg" viewBox="0 0 272 300"><path fill-rule="evenodd" clip-rule="evenodd" fill="#50C5D2" d="M235.5 78.3c-2.3 12-16.2 16.6-19 16.9-2.8.3-7.7.5-10.8 4.6-3.1 4.1-2.3 10 4.6 16.9 6.9 6.9 22.6 22.5 27.2 27.1 4.6 4.6 4.4 10 0 14.3-21 21-38.3 42.5-40 27.6-.7-5.9-1-18.7-13.8-24.1-17.9-7.5-30.3 5.6-30.3 5.6s-13.1 12.3-5.6 30.2c5.3 12.8 18.2 13.2 24.1 13.8 14.9 1.7-6.7 19-27.7 39.9-4.4 4.4-9.7 4.6-14.4 0-4.6-4.6-20.3-20.2-27.2-27.1-6.9-6.9-12.8-7.7-16.9-4.6-4.1 3.1-4.4 7.9-4.6 10.7-.3 2.8-4.9 16.6-16.9 18.9-12.1 2.3-20-7.7-20-7.7s-10-7.9-7.7-20c2.3-12 16.2-16.6 19-16.9 2.8-.3 7.7-.5 10.8-4.6 3.1-4.1 2.3-10-4.6-16.9-6.9-6.9-22.6-22.5-27.2-27.1-4.6-4.6-4.4-10 0-14.3 21-21 38.3-42.5 40-27.6.7 5.9 1 18.7 13.8 24.1 17.9 7.5 30.3-5.6 30.3-5.6s13.1-12.3 5.6-30.2C118.9 89.4 106 89 100.1 88.4c-14.9-1.7 6.7-19 27.7-39.9 4.4-4.4 9.7-4.6 14.4 0 4.6 4.6 20.3 20.2 27.2 27.1 6.9 6.9 12.8 7.7 16.9 4.6 4.1-3.1 4.4-7.9 4.6-10.7.3-2.8 4.9-16.6 16.9-18.9 12.1-2.3 20 7.7 20 7.7s10 8 7.7 20z"/></svg>