<svg xmlns="http://www.w3.org/2000/svg" width="983" height="201"><path data-name="Shape copy 2" d="M15.679 200.956s161.8.026 194.577.026a7.363 7.363 0 0 0 6.343-3.7c-1.432 2.384 107.235-189.3 108.175-190.957a4.35 4.35 0 0 0-3.921-6.21C467.346.115 15.679.072 15.679.072 7.541.072.943 5.233.943 11.6v177.832c0 6.368 6.598 11.524 14.736 11.524z" fill-rule="evenodd" fill="#2a4cbb"/><path data-name="Rounded Rectangle 2" d="M518.838 106.162c-3.288 3.325-92.458 88.351-94.862 90.71s-7.12 3.067-8.709 3.067c-29.208 0-50.918.1-52.717.115-3.213-.064-3.991-2.959-1.894-5.069 1.874-1.886 92.331-87.88 94.509-90a6.612 6.612 0 0 0 0-9.908c-2.178-2.122-92.623-88.117-94.5-90C358.566 2.96 359.344.066 362.557 0c1.8.018 23.506.115 52.71.115 1.589 0 6.3.707 8.708 3.067s91.561 87.385 94.849 90.71q6.068 6.138.014 12.27zM362.55 200.054h.107a8.709 8.709 0 0 1-.107 0zM362.664 0h0zm616.854 158.361l-13.972.042s-2.418.033-3.785-3.091c-6.435-14.693-38.7-87.338-38.7-87.338v82.868a7.658 7.658 0 0 1-7.578 7.549 7.086 7.086 0 0 1-5.243-2.194 7.349 7.349 0 0 1-2.159-5.355V46.018a4.15 4.15 0 0 1 3.48-4.292l13.972-.042s2.417-.033 3.785 3.091c-3.05-6.967 38.7 87.338 38.7 87.338V49.245A7.661 7.661 0 0 1 975.6 41.7a7.087 7.087 0 0 1 5.243 2.194A7.35 7.35 0 0 1 983 49.245v104.824a4.15 4.15 0 0 1-3.482 4.292zm-166.895-14.748a7.2 7.2 0 0 1 5.2 2.151 7.035 7.035 0 0 1 2.2 5.223 6.959 6.959 0 0 1-2.247 5.223 7.448 7.448 0 0 1-5.332 2.151l-62.644.039a4.631 4.631 0 0 1-4.64-4.623V46.307a4.631 4.631 0 0 1 4.64-4.623l62.647.016a7.659 7.659 0 0 1 7.579 7.549 7 7 0 0 1-2.247 5.18 7.373 7.373 0 0 1-5.332 2.195H760.1v35.9h22.559a7.511 7.511 0 0 1 7.4 7.374 7.351 7.351 0 0 1-2.159 5.355 7.081 7.081 0 0 1-5.243 2.194H760.1v36.167h52.52zm-216.3 12.457a4.877 4.877 0 0 1-4.489 2.291 8.58 8.58 0 0 1-5.414-1.975 6.149 6.149 0 0 1-2.509-5.048 11.717 11.717 0 0 1 1.763-5.794L645.828 44.1a5.08 5.08 0 0 1 4.649-2.4 8.67 8.67 0 0 1 5.31 1.887 5.927 5.927 0 0 1 2.5 4.961 11.55 11.55 0 0 1-1.851 5.969z" fill="#282a2e" fill-rule="evenodd"/><path data-name="Rounded Rectangle 4" d="M172.521 30.281c-1.873 1.886-65.561 62.671-67.739 64.793a6.872 6.872 0 0 0 0 10.139c2.178 2.123 65.866 62.908 67.739 64.793 2.1 2.111 1.319 5.006-1.894 5.07-1.8-.019-23.5-.116-52.708-.116-1.589 0-6.3-.707-8.708-3.066s-64.8-62.176-68.091-65.5c-4.047-4.093-4.047-8.408 0-12.5 3.288-3.325 65.688-63.141 68.092-65.5s7.119-3.067 8.708-3.067c29.2 0 50.91-.1 52.708-.115 3.212.063 3.99 2.958 1.893 5.069zm-2 144.8h.106c.189-.003.159-.003-.106-.003zm.106-149.866h-.106c.265-.006.295-.005.106-.003z" fill="#e5e9f2" fill-rule="evenodd"/></svg>